<?xml version="1.0" encoding="UTF-8" standalone="no"?>
<!-- Created with Inkscape (http://www.inkscape.org/) -->

<svg
   width="500"
   height="500"
   viewBox="0 0 500 500.00002"
   version="1.1"
   id="svg80032"
   xmlns="http://www.w3.org/2000/svg"
   xmlns:svg="http://www.w3.org/2000/svg">
  <defs
     id="defs80029" />
  <g
     id="layer1">
    <rect
       style="fill:#4d4d4d;fill-opacity:1;stroke:none;stroke-width:11.5572;stroke-miterlimit:4;stroke-dasharray:none;stroke-dashoffset:6;stroke-opacity:1"
       id="rect28022-1-2-7-8-0"
       width="500"
       height="500"
       x="0"
       y="0" />
    <ellipse
       style="fill:#ffffff;fill-opacity:1;stroke:none;stroke-width:34.736;stroke-miterlimit:4;stroke-dasharray:none;stroke-dashoffset:6;stroke-opacity:1"
       id="path28614-9-6-5-3-04"
       cx="250"
       cy="389.40521"
       rx="300"
       ry="60" />
    <g
       id="g92639"
       transform="translate(-6.437854,3.2961266)">
      <g
         id="g34116-7-0-6-8-6"
         transform="matrix(1.0816033,0,0,1.2133105,-594.99018,-106.65918)"
         style="fill:#e5e5e5">
        <path
           style="fill:#ffffff;stroke:#000000;stroke-width:1px;stroke-linecap:butt;stroke-linejoin:miter;stroke-opacity:1"
           d="m 698.82286,306.39185 173.65744,-1.08334 7.38178,7.87595 c 2.77804,13.11995 -3.09085,83.17386 -4.03885,95.45474 l -179.14343,-0.30107 -2.21476,-7.17095 c 0.48864,-2.73998 4.35782,-94.77532 4.35782,-94.77532 z"
           id="path28919-8-6-2-9-2" />
        <rect
           style="fill:#e5e5e5;fill-opacity:1;stroke:none;stroke-width:7.55906;stroke-miterlimit:4;stroke-dasharray:none;stroke-dashoffset:6;stroke-opacity:1"
           id="rect29621-4-1-1-6-6"
           width="185.66972"
           height="8.0454216"
           x="694.56116"
           y="408.88589" />
      </g>
      <g
         id="g34112-5-5-7-4-7"
         transform="matrix(1.0816033,0,0,1.2133105,-594.99018,-106.65918)">
        <path
           style="fill:#ffffff;fill-opacity:1;stroke:none;stroke-width:1px;stroke-linecap:butt;stroke-linejoin:miter;stroke-opacity:1"
           d="m 696.64892,223.26562 27.10073,-45.47488 67.64819,25.0799 62.52641,-17.8556 18.19198,45.6737 -46.60908,57.02725 -77.26183,3.74862 -32.30289,-37.37316 z"
           id="path33919-0-9-8-3-5" />
        <g
           id="g33884-3-4-5-3-6">
          <path
             style="fill:#ffffff;fill-opacity:1;stroke:none;stroke-width:1px;stroke-linecap:butt;stroke-linejoin:miter;stroke-opacity:1"
             d="m 691.70202,228.00969 c -2.57925,-0.58348 -18.39658,-6.55037 -18.39658,-6.55037 l -4.38679,-22.31543 7.95094,-15.34897 14.78553,-3.27251 20.61951,5.7068 z"
             id="path33599-6-9-7-3-98" />
          <path
             style="fill:#ffffff;fill-opacity:1;stroke:none;stroke-width:1px;stroke-linecap:butt;stroke-linejoin:miter;stroke-opacity:1"
             d="m 868.02847,185.83676 17.72016,-5.77617 14.58057,6.6872 5.43944,14.723 -3.42318,15.66166 -8.41078,8.3104 -18.04508,4.73418 z"
             id="path33700-1-0-4-8-7" />
          <path
             style="fill:#a90533;fill-opacity:1;stroke:none;stroke-width:0.484595"
             d="m 883.49685,410.10336 c 17.46244,1.79251 35.14829,6.62977 52.82108,5.47692 7.0853,-0.46231 18.18695,-2.79323 13.95979,-12.71973 -1.88363,-4.42389 -8.7523,-6.99659 -12.9906,-8.40388 -12.25061,-4.06819 -25.35315,-4.59493 -37.31399,-9.55236 4.15399,-15.92436 11.15159,-30.82861 12.14016,-47.49051 0.33048,-5.56125 1.42422,-12.87964 -2.06147,-17.77406 -6.45146,-9.05953 -19.88255,-6.93363 -28.87959,-10.25019 -4.04735,-1.49209 -4.15249,-6.24308 -9.30571,-6.75966 -5.81128,-0.58248 -16.04697,2.18895 -21.12748,-0.85531 -2.0484,-1.227 -2.95118,-4.01005 -3.97371,-6.03615 -2.67931,-5.30972 -4.74031,-10.93349 -6.88223,-16.47628 7.35088,-2.53058 13.62008,-6.57163 21.32229,-8.31811 18.43648,-4.17965 41.99616,0.0977 58.15164,9.77189 v 0.48459 c -14.91636,12.506 3.69844,36.93408 20.34629,27.15344 10.10531,-5.93729 17.21873,-29.38258 8.15432,-38.35053 -17.25359,-17.06944 -44.95801,-28.41777 -68.72216,-32.41667 l 1.45378,-6.29976 c 12.86508,2.06147 24.34228,-9.59067 26.758,-21.32227 2.61101,-12.67605 -3.26666,-26.10957 -15.61225,-30.96233 -3.27248,-1.28612 -6.69958,-1.652 -10.17655,-1.21438 -4.96712,0.62512 -8.86569,2.43216 -13.08411,5.0393 l -4.84598,-8.72274 c 17.55986,-2.95555 33.82877,-4.19661 50.3981,4.2596 5.34221,2.72684 9.15695,7.02956 14.05333,10.27832 -0.13478,-5.36063 0.39541,-10.66841 0.96917,-15.9917 0.30433,-2.82423 1.12476,-6.42334 -0.0936,-9.12643 -2.15402,-4.78055 -12.26998,-6.37534 -16.86735,-7.40222 -12.26516,-2.7399 -24.90831,-3.16489 -37.31399,-1.10246 -4.72628,0.78554 -9.44382,1.88459 -14.0533,3.18477 -2.06147,0.58154 -4.59109,1.87637 -6.77179,1.41891 -4.62983,-0.97113 -9.60279,-8.91902 -13.0967,-12.02286 -8.01137,-7.11583 -17.26669,-12.27873 -27.13744,-16.32221 -30.62898,-12.54716 -64.70387,0.54035 -86.70797,22.9801 -4.86779,4.96422 -9.60811,10.60977 -13.38894,16.45401 -2.05518,3.17748 -3.78711,8.46059 -7.0882,10.55111 -2.55674,1.61904 -8.25316,-2.76461 -11.05657,-3.33208 -7.14489,-1.44653 -14.33146,0.52967 -19.86508,5.1818 -12.09554,10.16877 -12.33591,31.1639 -0.47393,41.67387 5.34316,4.73353 11.02408,3.71925 16.77964,6.63606 1.64909,0.83543 3.10772,3.48475 1.8914,5.21571 -1.01135,1.44022 -3.55162,1.76151 -5.11638,2.2335 -4.36815,1.31714 -8.75861,2.59454 -13.08414,4.04785 -14.68183,4.93272 -29.96358,11.53441 -42.15994,21.24234 -5.94551,4.73306 -11.45152,9.27181 -11.06673,17.52256 0.38766,8.30308 3.82685,19.08779 9.79129,25.05076 7.22194,7.2205 19.81178,4.47816 24.88501,-3.72897 2.39441,-3.87485 4.19661,-9.01644 2.98464,-13.59053 -0.73998,-2.79273 -5.47739,-7.8059 -2.18942,-10.10968 5.21234,-3.65142 13.06233,-5.57044 19.20896,-6.86527 13.26583,-2.7937 26.45077,-4.29547 39.73697,-0.66487 4.59009,1.25462 8.36607,3.30253 12.59903,5.40955 1.51533,0.75452 4.10259,1.61807 4.6337,3.44014 0.50011,1.71402 -1.06706,3.96743 -1.79929,5.42071 -1.96361,3.89762 -4.3294,13.98453 -8.3467,15.9457 -5.25983,2.56739 -14.36782,0.10379 -20.17088,0.70699 -2.29118,0.23857 -4.77571,0.55826 -6.57888,2.12643 -1.57932,1.37385 -2.15064,3.8317 -4.21648,4.60852 -8.97667,3.3757 -19.64074,1.39079 -27.31723,8.81819 -3.8472,3.72221 -3.56664,9.39392 -3.56274,14.31501 0.008,12.08973 3.02679,24.03264 7.01743,35.3756 1.27159,3.61364 6.20963,13.15051 4.24848,16.71909 -1.67043,3.03938 -7.30289,3.3025 -10.29672,3.95768 -9.7094,2.12499 -19.77302,3.3539 -29.07583,7.01166 -5.83505,2.29456 -15.10587,9.22382 -8.86378,16.18989 4.02701,4.49319 11.70544,3.6122 17.10193,3.6122 15.16449,0 30.06197,-4.6633 45.05589,-4.65651 4.01151,0.002 3.51671,3.33792 4.94096,6.09963 1.38498,2.68466 3.74544,4.06676 6.70102,4.30032 13.87546,1.09858 28.23843,0.0717 42.15994,0.0717 h 83.83526 34.89101 c 5.52538,0 12.04564,0.94204 17.44404,-0.30577 5.08245,-1.17516 6.82165,-6.15003 6.3012,-10.83995 M 703.71135,187.18872 c -4.62792,12.76959 -10.65823,23.80336 -10.66113,37.79852 -6.24162,-0.0393 -12.31751,-1.76152 -16.39586,-6.83765 -8.6365,-10.74934 -5.22783,-30.47194 9.1269,-34.42672 6.67774,-1.83953 11.91816,0.96579 17.93009,3.46585 m 177.36249,37.79852 c -0.003,-14.12261 -6.08748,-24.75269 -10.17652,-37.79852 5.7357,-2.70019 10.97178,-5.04127 17.44548,-3.63886 12.98238,2.81211 17.40239,20.08752 11.78687,30.77624 -4.07207,7.74967 -10.69747,10.64998 -19.05583,10.66114 m -43.61372,24.22985 c 4.45345,13.7621 -5.93776,26.78468 -17.93009,32.42686 -19.62715,9.23494 -50.78674,9.07018 -69.29736,-2.76368 -6.92633,-4.42776 -12.49727,-11.26057 -14.06106,-19.48663 -0.54129,-2.84845 0.89893,-7.4051 -0.3945,-9.84897 -1.41741,-2.67788 -6.87399,-4.24117 -9.28971,-6.09717 -13.09671,-10.06413 -15.55605,-27.55517 -6.78969,-41.23631 1.96748,-3.07041 5.35722,-8.85891 9.22528,-9.6357 4.14815,-0.83303 10.7319,3.77693 14.52533,5.32135 11.12291,4.52857 22.15526,9.20926 33.43718,13.33802 4.23632,1.55023 9.39582,4.87166 14.05327,4.21454 4.29985,-0.60622 8.55945,-3.12224 12.59956,-4.64001 9.91243,-3.72363 19.8113,-7.59554 29.56042,-11.73157 3.7309,-1.58223 11.59546,-7.04655 15.50661,-5.16581 4.2887,2.06194 6.94961,7.12114 8.93162,11.20677 8.71742,17.96981 -1.10246,38.15521 -20.07686,44.09831 M 698.86537,406.71168 c 0,-23.91387 0.19927,-47.83118 0.4783,-71.72036 0.0717,-6.13648 0.006,-12.27776 0.006,-18.41468 0,-2.12352 -0.5975,-5.53169 0.74823,-7.34991 1.76683,-2.38711 7.33339,-1.37286 9.91291,-1.37286 h 28.59125 c 33.40662,0 66.87726,-0.48458 100.31156,-0.48458 h 25.19905 c 2.6711,0 7.58442,-0.91589 9.73603,1.01475 3.77405,3.38683 1.8943,15.20423 1.8943,19.82293 v 55.72867 c 0,5.3315 0.17049,10.67904 -0.31498,15.9917 -0.14918,1.63356 0.22002,4.37202 -1.18435,5.55153 -2.37455,1.9946 -9.12159,0.74823 -12.06939,0.74823 h -33.43643 c -43.30508,0 -86.56209,0.48458 -129.87201,0.48458 m 172.51657,2.12062 c 3.02967,-0.21422 11.15346,1.4814 6.11754,5.71435 -2.61829,2.20057 -7.30627,1.37239 -10.47894,1.37239 h -26.16825 c -34.26295,0 -68.50845,0.48895 -102.73454,0.48458 h -32.46801 c -2.98804,0 -10.10918,1.09568 -9.59842,-3.80989 0.38573,-3.69991 7.07415,-2.48985 9.59842,-2.48985 10.50653,0 21.01503,-0.47589 31.49882,-0.48461 27.1471,-0.0221 54.25933,-0.48461 81.41227,-0.48461 17.52012,0 35.34748,0.93336 52.82111,-0.30236"
             id="path1434-2-0-91-1-6-2" />
        </g>
      </g>
      <path
         id="path3751-6-6-7-8-0-82"
         style="fill:#4d4d4d;fill-opacity:1;stroke:none;stroke-width:0.543679px;stroke-linecap:butt;stroke-linejoin:miter;stroke-opacity:1"
         d="m 201.31811,135.04061 c 0,0 -35.62654,33.83585 7.97856,56.76636 0,0 33.20555,-17.75919 48.88388,-14.69263 15.67828,-3.06656 48.88383,14.69263 48.88383,14.69263 43.60534,-22.93051 7.97855,-56.76636 7.97855,-56.76636 l -56.86238,24.88992 z" />
      <ellipse
         style="fill:#a90533;fill-opacity:1;stroke-width:0.725275;stroke-dashoffset:6"
         id="path4791-6-3-7-5-4-9"
         cx="228.32356"
         cy="242.82831"
         rx="3.6087177"
         ry="7.231801"
         transform="matrix(0.9746128,-0.22389704,0.17959292,0.98374101,0,0)" />
      <ellipse
         style="fill:#a90533;fill-opacity:1;stroke-width:0.725275;stroke-dashoffset:6"
         id="path4791-2-1-2-1-9-8-9"
         cx="-279.44226"
         cy="127.25107"
         rx="3.6087177"
         ry="7.231801"
         transform="matrix(-0.97461279,-0.22389709,-0.17959292,0.98374101,0,0)" />
      <ellipse
         style="fill:#f5f5f5;fill-opacity:1;stroke-width:0.852293;stroke-dashoffset:6"
         id="path5010-8-0-1-7-8-6"
         cx="288.30228"
         cy="167.52711"
         rx="10.157156"
         ry="11.118468" />
      <ellipse
         style="fill:#f5f5f5;fill-opacity:1;stroke-width:0.852293;stroke-dashoffset:6"
         id="path5010-9-7-6-5-5-8-02"
         cx="226.17007"
         cy="166.98425"
         rx="10.157156"
         ry="11.118468" />
      <path
         id="path27595-2-5-7-8-7-7"
         style="fill:#a90533;fill-opacity:1;stroke:none;stroke-width:11.2325;stroke-miterlimit:4;stroke-dasharray:none;stroke-dashoffset:6;stroke-opacity:1"
         d="m 238.19911,205.93356 a 17.377863,20.76543 83.472525 0 0 -0.70772,5.47628 17.377863,20.76543 83.472525 0 0 21.761,15.75469 17.377863,20.76543 83.472525 0 0 19.63431,-18.94908 17.377863,20.76543 83.472525 0 0 -0.30485,-2.19426 17.377863,20.76543 83.472525 0 1 -18.92889,13.48691 17.377863,20.76543 83.472525 0 1 -21.45354,-13.57458 z" />
      <path
         style="fill:#a90533;fill-opacity:1;stroke-width:0.390488"
         d="m 219.08956,357.05399 -6.54063,-0.10703 v -27.51983 -27.51988 h 5.85472 5.85466 l -1.42646,1.85488 -1.42644,1.8548 -1.86458,3.90481 -1.86461,3.90487 -0.81726,3.23141 -0.81734,3.23143 -0.39455,4.16475 -0.39454,4.16479 0.40456,4.31842 0.40495,4.31839 0.9911,3.7096 0.99113,3.70961 1.72083,3.51439 1.72087,3.5144 2.18685,2.87922 2.18687,2.87921 -0.11422,0.0487 -0.11421,0.0487 z m 71.99834,-1.66864 1.80851,-2.1292 2.19395,-3.379 2.19407,-3.37903 v -0.23034 -0.23071 l -6.59525,-3.30195 -6.59528,-3.30197 -1.68433,2.42116 -1.68435,2.42119 -2.33363,2.44917 -2.3337,2.4491 -2.13624,1.41788 -2.13611,1.41795 -1.8621,0.70751 -1.86207,0.70761 -2.32278,0.37407 -2.32277,0.37406 -2.88292,-0.35893 -2.88285,-0.35894 -2.3429,-1.15441 -2.34289,-1.15441 -1.50014,-1.46474 -1.50019,-1.46465 -1.15156,-1.67387 -1.15161,-1.67378 -0.99578,-2.63985 -0.99583,-2.6398 -0.51556,-2.7334 -0.51607,-2.73345 -0.27573,-3.41679 -0.27534,-3.4167 h 25.62298 25.62303 v -4.44751 -4.44741 l -0.61263,-3.22963 -0.61266,-3.22968 -0.96544,-2.57312 -0.96545,-2.57319 -1.35052,-2.27331 -1.35056,-2.27326 v -0.16756 -0.16755 h 5.46679 5.46686 v 27.52928 27.5293 h -4.84919 -4.84914 l -0.71526,0.27458 -0.71529,0.2746 z m -45.87072,-42.25164 0.23828,-1.26908 0.93522,-2.01547 0.93532,-2.01543 1.59976,-1.4453 1.59987,-1.44531 1.64058,-0.72565 1.64062,-0.72581 2.15057,-0.25266 2.15061,-0.25265 2.13881,0.62181 2.13876,0.62171 1.53706,1.11425 1.53702,1.11416 1.09699,2.01775 1.09703,2.01781 0.3094,1.95461 0.30938,1.95458 h -11.64648 -11.64652 z"
         id="path80929-4-6" />
    </g>
  </g>
</svg>
